<?xml version="1.0" encoding="utf-8"?>
<!-- Generator: Adobe Illustrator 25.0.1, SVG Export Plug-In . SVG Version: 6.00 Build 0)  -->
<!DOCTYPE svg PUBLIC "-//W3C//DTD SVG 1.1//EN" "http://www.w3.org/Graphics/SVG/1.1/DTD/svg11.dtd" [
	<!ENTITY ns_extend "http://ns.adobe.com/Extensibility/1.0/">
	<!ENTITY ns_ai "http://ns.adobe.com/AdobeIllustrator/10.0/">
	<!ENTITY ns_graphs "http://ns.adobe.com/Graphs/1.0/">
	<!ENTITY ns_vars "http://ns.adobe.com/Variables/1.0/">
	<!ENTITY ns_imrep "http://ns.adobe.com/ImageReplacement/1.0/">
	<!ENTITY ns_sfw "http://ns.adobe.com/SaveForWeb/1.0/">
	<!ENTITY ns_custom "http://ns.adobe.com/GenericCustomNamespace/1.0/">
	<!ENTITY ns_adobe_xpath "http://ns.adobe.com/XPath/1.0/">
]>
<svg version="1.1" id="图层_1" xmlns:x="&ns_extend;" xmlns:i="&ns_ai;" xmlns:graph="&ns_graphs;"
	 xmlns="http://www.w3.org/2000/svg" xmlns:xlink="http://www.w3.org/1999/xlink" x="0px" y="0px" viewBox="0 0 28 28"
	 style="enable-background:new 0 0 28 28;" xml:space="preserve">
<style type="text/css">
	.st0{fill:#EB8383;}
</style>
<metadata>
	<sfw  xmlns="&ns_sfw;">
		<slices></slices>
		<sliceSourceBounds  bottomLeftOrigin="true" height="16" width="14.4" x="6.8" y="6"></sliceSourceBounds>
	</sfw>
</metadata>
<path class="st0" d="M18.8,17.2c1.3,0,2.4,1.1,2.4,2.4S20.1,22,18.8,22s-2.4-1.1-2.4-2.4S17.5,17.2,18.8,17.2z M16.8,7.6
	c2,0,3.6,1.6,3.6,3.6s-1.6,3.6-3.6,3.6h-5.6c-1.1,0-2,0.9-2,2c0,1.1,0.9,2,2,2h3.6c0.4,0,0.8,0.4,0.8,0.8c0,0.4-0.4,0.8-0.8,0.8
	h-3.6c-2,0-3.6-1.6-3.6-3.6s1.6-3.6,3.6-3.6h5.6c1.1,0,2-0.9,2-2c0-1.1-0.9-2-2-2h-3.6c-0.4,0-0.8-0.4-0.8-0.8
	c0-0.4,0.4-0.8,0.8-0.8L16.8,7.6z M18.8,18.8c-0.4,0-0.8,0.4-0.8,0.8c0,0.4,0.4,0.8,0.8,0.8s0.8-0.4,0.8-0.8S19.2,18.8,18.8,18.8
	C18.8,18.8,18.8,18.8,18.8,18.8z M9.2,6c1.3,0,2.4,1.1,2.4,2.4s-1.1,2.4-2.4,2.4S6.8,9.7,6.8,8.4S7.9,6,9.2,6z M9.2,7.6
	C8.8,7.6,8.4,8,8.4,8.4s0.4,0.8,0.8,0.8S10,8.9,10,8.4c0,0,0,0,0,0C10,8,9.7,7.6,9.2,7.6z"/>
</svg>
