<?xml version="1.0" encoding="utf-8"?>
<!-- Generator: Adobe Illustrator 25.0.1, SVG Export Plug-In . SVG Version: 6.00 Build 0)  -->
<!DOCTYPE svg PUBLIC "-//W3C//DTD SVG 1.1//EN" "http://www.w3.org/Graphics/SVG/1.1/DTD/svg11.dtd" [
	<!ENTITY ns_extend "http://ns.adobe.com/Extensibility/1.0/">
	<!ENTITY ns_ai "http://ns.adobe.com/AdobeIllustrator/10.0/">
	<!ENTITY ns_graphs "http://ns.adobe.com/Graphs/1.0/">
	<!ENTITY ns_vars "http://ns.adobe.com/Variables/1.0/">
	<!ENTITY ns_imrep "http://ns.adobe.com/ImageReplacement/1.0/">
	<!ENTITY ns_sfw "http://ns.adobe.com/SaveForWeb/1.0/">
	<!ENTITY ns_custom "http://ns.adobe.com/GenericCustomNamespace/1.0/">
	<!ENTITY ns_adobe_xpath "http://ns.adobe.com/XPath/1.0/">
]>
<svg version="1.1" id="图层_1" xmlns:x="&ns_extend;" xmlns:i="&ns_ai;" xmlns:graph="&ns_graphs;"
	 xmlns="http://www.w3.org/2000/svg" xmlns:xlink="http://www.w3.org/1999/xlink" x="0px" y="0px" viewBox="0 0 28 28"
	 style="enable-background:new 0 0 28 28;" xml:space="preserve">
<style type="text/css">
	.st0{fill:#37352F;}
</style>
<metadata>
	<sfw  xmlns="&ns_sfw;">
		<slices></slices>
		<sliceSourceBounds  bottomLeftOrigin="true" height="16" width="16" x="6" y="6"></sliceSourceBounds>
	</sfw>
</metadata>
<path class="st0" d="M14,6c-4.4,0-8,3.6-8,8c0,4.3,3.7,8,8,8c4.4,0,8-3.7,8-8C22,9.6,18.3,6,14,6z M14,20.2c-3.5,0-6.3-2.8-6.3-6.2
	s2.8-6.2,6.3-6.2c3.4,0,6.2,2.8,6.2,6.2S17.4,20.2,14,20.2z"/>
<path class="st0" d="M20.2,12.1c-0.2-0.2-0.7-0.2-0.9,0c-0.6,0.6-1.1,1-1.7,1.4c0,0-0.1,0-0.1,0.1c-0.7,0.3-1.4,0.6-2.1,0.7
	c0,0,0,0-0.1,0l0,0c-0.5,0.1-0.8,0.1-1.3,0.1c-0.3,0-0.8,0-1.1-0.1l0,0h-0.1c-0.7-0.1-1.4-0.3-1.9-0.7c-0.1-0.1-0.1-0.1-0.2-0.1
	c-0.6-0.3-1.3-0.8-1.7-1.3c-0.2-0.2-0.7-0.2-0.9,0c-0.2,0.2-0.2,0.7,0,0.9c0.5,0.5,0.9,0.9,1.5,1.3l-1.1,1c-0.2,0.2-0.2,0.7,0.1,0.9
	c0.1,0.1,0.2,0.1,0.5,0.1c0.2,0,0.3-0.1,0.5-0.2l1.1-1.4c0.5,0.2,0.9,0.3,1.4,0.5l-0.3,1.5c-0.1,0.3,0.1,0.7,0.5,0.8h0.1
	c0.3,0,0.6-0.2,0.6-0.5l0.3-1.5c0.2,0,0.6,0,0.8,0c0.3,0,0.6,0,0.9,0l0.3,1.5c0.1,0.3,0.3,0.5,0.6,0.5h0.1c0.3-0.1,0.6-0.5,0.5-0.8
	l-0.3-1.5c0.5-0.1,0.9-0.3,1.4-0.5l1.1,1.4c0.1,0.1,0.3,0.2,0.5,0.2s0.3,0,0.5-0.1c0.2-0.2,0.3-0.6,0.1-0.9l-1-1.3
	c0.6-0.3,1-0.7,1.5-1.1C20.4,12.6,20.4,12.3,20.2,12.1z"/>
</svg>
