<?xml version="1.0" encoding="utf-8"?>
<!-- Generator: Adobe Illustrator 25.0.1, SVG Export Plug-In . SVG Version: 6.00 Build 0)  -->
<!DOCTYPE svg PUBLIC "-//W3C//DTD SVG 1.1//EN" "http://www.w3.org/Graphics/SVG/1.1/DTD/svg11.dtd" [
	<!ENTITY ns_extend "http://ns.adobe.com/Extensibility/1.0/">
	<!ENTITY ns_ai "http://ns.adobe.com/AdobeIllustrator/10.0/">
	<!ENTITY ns_graphs "http://ns.adobe.com/Graphs/1.0/">
	<!ENTITY ns_vars "http://ns.adobe.com/Variables/1.0/">
	<!ENTITY ns_imrep "http://ns.adobe.com/ImageReplacement/1.0/">
	<!ENTITY ns_sfw "http://ns.adobe.com/SaveForWeb/1.0/">
	<!ENTITY ns_custom "http://ns.adobe.com/GenericCustomNamespace/1.0/">
	<!ENTITY ns_adobe_xpath "http://ns.adobe.com/XPath/1.0/">
]>
<svg version="1.1" id="图层_1" xmlns:x="&ns_extend;" xmlns:i="&ns_ai;" xmlns:graph="&ns_graphs;"
	 xmlns="http://www.w3.org/2000/svg" xmlns:xlink="http://www.w3.org/1999/xlink" x="0px" y="0px" viewBox="0 0 28 28"
	 style="enable-background:new 0 0 28 28;" xml:space="preserve">
<metadata>
	<sfw  xmlns="&ns_sfw;">
		<slices></slices>
		<sliceSourceBounds  bottomLeftOrigin="true" height="15.1" width="9.9" x="9.3" y="6.6"></sliceSourceBounds>
	</sfw>
</metadata>
<path d="M16.9,12.7c0.9-0.6,1.3-1.6,1.3-2.6c0-2.2-1.8-3.9-4-3.9c-2.1,0-3.8,1.7-3.8,3.8H13c0-0.7,0.5-1.2,1.2-1.2
	c0.8,0,1.4,0.5,1.4,1.3c0,1.3-1,1.5-2.1,1.5h-0.2V14h0.3c0.7,0,1.4,0.1,2,0.5c0.6,0.4,1,1.1,1,2c0,1.2-1,2.3-2.3,2.3
	c-1.2,0-2.3-0.9-2.4-2.1H9.3c0.1,2.6,2.3,4.7,4.8,4.7c2.8,0,5-2,5-4.8C19.2,14.9,18.4,13.2,16.9,12.7z"/>
</svg>
