<?xml version="1.0" encoding="utf-8"?>
<!-- Generator: Adobe Illustrator 25.0.1, SVG Export Plug-In . SVG Version: 6.00 Build 0)  -->
<!DOCTYPE svg PUBLIC "-//W3C//DTD SVG 1.1//EN" "http://www.w3.org/Graphics/SVG/1.1/DTD/svg11.dtd" [
	<!ENTITY ns_extend "http://ns.adobe.com/Extensibility/1.0/">
	<!ENTITY ns_ai "http://ns.adobe.com/AdobeIllustrator/10.0/">
	<!ENTITY ns_graphs "http://ns.adobe.com/Graphs/1.0/">
	<!ENTITY ns_vars "http://ns.adobe.com/Variables/1.0/">
	<!ENTITY ns_imrep "http://ns.adobe.com/ImageReplacement/1.0/">
	<!ENTITY ns_sfw "http://ns.adobe.com/SaveForWeb/1.0/">
	<!ENTITY ns_custom "http://ns.adobe.com/GenericCustomNamespace/1.0/">
	<!ENTITY ns_adobe_xpath "http://ns.adobe.com/XPath/1.0/">
]>
<svg version="1.1" id="图层_1" xmlns:x="&ns_extend;" xmlns:i="&ns_ai;" xmlns:graph="&ns_graphs;"
	 xmlns="http://www.w3.org/2000/svg" xmlns:xlink="http://www.w3.org/1999/xlink" x="0px" y="0px" viewBox="0 0 28 28"
	 style="enable-background:new 0 0 28 28;" xml:space="preserve">
<metadata>
	<sfw  xmlns="&ns_sfw;">
		<slices></slices>
		<sliceSourceBounds  bottomLeftOrigin="true" height="14.9" width="10.1" x="9.4" y="6.6"></sliceSourceBounds>
	</sfw>
</metadata>
<g>
	<path d="M17.7,6.5l-3.2,4.9l0.7-0.1c1.1,0,2.2,0.5,3,1.4c0.9,0.9,1.3,2.1,1.3,3.5c0,2.8-2.2,5.2-5,5.2c-2.9,0-5-2.3-5-5.2
		c0-1.3,0.4-2.4,1.1-3.4l4.1-6.3H17.7z M12,16.2c0,1.4,1,2.6,2.4,2.6c1.4,0,2.4-1.1,2.4-2.5c0-1.4-1.1-2.6-2.4-2.6
		C13.1,13.8,12,14.8,12,16.2z"/>
</g>
</svg>
