<?xml version="1.0" encoding="utf-8"?>
<!-- Generator: Adobe Illustrator 25.0.1, SVG Export Plug-In . SVG Version: 6.00 Build 0)  -->
<!DOCTYPE svg PUBLIC "-//W3C//DTD SVG 1.1//EN" "http://www.w3.org/Graphics/SVG/1.1/DTD/svg11.dtd" [
	<!ENTITY ns_extend "http://ns.adobe.com/Extensibility/1.0/">
	<!ENTITY ns_ai "http://ns.adobe.com/AdobeIllustrator/10.0/">
	<!ENTITY ns_graphs "http://ns.adobe.com/Graphs/1.0/">
	<!ENTITY ns_vars "http://ns.adobe.com/Variables/1.0/">
	<!ENTITY ns_imrep "http://ns.adobe.com/ImageReplacement/1.0/">
	<!ENTITY ns_sfw "http://ns.adobe.com/SaveForWeb/1.0/">
	<!ENTITY ns_custom "http://ns.adobe.com/GenericCustomNamespace/1.0/">
	<!ENTITY ns_adobe_xpath "http://ns.adobe.com/XPath/1.0/">
]>
<svg version="1.1" id="图层_1" xmlns:x="&ns_extend;" xmlns:i="&ns_ai;" xmlns:graph="&ns_graphs;"
	 xmlns="http://www.w3.org/2000/svg" xmlns:xlink="http://www.w3.org/1999/xlink" x="0px" y="0px" viewBox="0 0 28 28"
	 style="enable-background:new 0 0 28 28;" xml:space="preserve">
<style type="text/css">
	.st0{fill:#EB8383;}
</style>
<metadata>
	<sfw  xmlns="&ns_sfw;">
		<slices></slices>
		<sliceSourceBounds  bottomLeftOrigin="true" height="28" width="28" x="0" y="0"></sliceSourceBounds>
	</sfw>
</metadata>
<desc>Created with Sketch.</desc>
<desc>Created with Sketch.</desc>
<desc>Created with Sketch.</desc>
<desc>Created with Sketch.</desc>
<desc>Created with Sketch.</desc>
<desc>Created with Sketch.</desc>
<path class="st0" d="M21.1,16.6c-0.1,0-0.2,0-0.3,0.1C20,16.9,19.1,17,18.3,17c-4.2,0-6.8-2.6-6.8-6.8c0-0.9,0.2-2.1,0.5-2.7V7.2
	c0-0.2-0.2-0.4-0.4-0.4s-0.3,0-0.5,0.1C8.3,8,6.4,11,6.4,14.3c0,4.5,3.5,7.7,8,7.7c3.3,0,6.1-2,7.1-4.5c0.1-0.1,0.1-0.3,0.1-0.4
	C21.6,16.8,21.4,16.6,21.1,16.6z M14,0C6.3,0,0,6.3,0,14c0,7.6,6.4,14,14,14c7.7,0,14-6.4,14-14C28,6.3,21.6,0,14,0z M14,24.9
	C7.9,24.9,3,20,3,14S7.9,3.1,14,3.1C20,3.1,24.9,8,24.9,14S20,24.9,14,24.9z"/>
</svg>
