<?xml version="1.0" encoding="utf-8"?>
<!-- Generator: Adobe Illustrator 25.0.1, SVG Export Plug-In . SVG Version: 6.00 Build 0)  -->
<!DOCTYPE svg PUBLIC "-//W3C//DTD SVG 1.1//EN" "http://www.w3.org/Graphics/SVG/1.1/DTD/svg11.dtd" [
	<!ENTITY ns_extend "http://ns.adobe.com/Extensibility/1.0/">
	<!ENTITY ns_ai "http://ns.adobe.com/AdobeIllustrator/10.0/">
	<!ENTITY ns_graphs "http://ns.adobe.com/Graphs/1.0/">
	<!ENTITY ns_vars "http://ns.adobe.com/Variables/1.0/">
	<!ENTITY ns_imrep "http://ns.adobe.com/ImageReplacement/1.0/">
	<!ENTITY ns_sfw "http://ns.adobe.com/SaveForWeb/1.0/">
	<!ENTITY ns_custom "http://ns.adobe.com/GenericCustomNamespace/1.0/">
	<!ENTITY ns_adobe_xpath "http://ns.adobe.com/XPath/1.0/">
]>
<svg version="1.1" id="图层_1" xmlns:x="&ns_extend;" xmlns:i="&ns_ai;" xmlns:graph="&ns_graphs;"
	 xmlns="http://www.w3.org/2000/svg" xmlns:xlink="http://www.w3.org/1999/xlink" x="0px" y="0px" viewBox="0 0 28 28"
	 style="enable-background:new 0 0 28 28;" xml:space="preserve">
<style type="text/css">
	.st0{fill:#EBEBEB;}
</style>
<metadata>
	<sfw  xmlns="&ns_sfw;">
		<slices></slices>
		<sliceSourceBounds  bottomLeftOrigin="true" height="13.2" width="15.3" x="6.4" y="7.4"></sliceSourceBounds>
	</sfw>
</metadata>
<path class="st0" d="M14.1,18.5h-7c-0.4,0-0.7-0.3-0.7-0.7s0.3-0.7,0.7-0.7h7c0.3-1.2,1.4-2.1,2.8-2.1c1.3,0,2.4,0.9,2.8,2.1H21
	c0.4,0,0.7,0.3,0.7,0.7s-0.3,0.7-0.7,0.7h-1.3c-0.3,1.2-1.4,2.1-2.8,2.1C15.5,20.7,14.4,19.8,14.1,18.5L14.1,18.5z M15.4,17.8
	c0,0.8,0.6,1.4,1.4,1.4s1.4-0.6,1.4-1.4s-0.6-1.4-1.4-1.4C16.1,16.4,15.4,17,15.4,17.8z M9.3,10.9H7.1c-0.4,0-0.7-0.3-0.7-0.7
	s0.3-0.7,0.7-0.7h2.2c0.3-1.2,1.4-2.1,2.8-2.1c1.3,0,2.4,0.9,2.8,2.1H21c0.4,0,0.7,0.3,0.7,0.7s-0.3,0.7-0.7,0.7h-6.1
	c-0.3,1.2-1.4,2.1-2.8,2.1C10.8,13,9.7,12.1,9.3,10.9z M10.7,10.2c0,0.8,0.6,1.4,1.4,1.4c0.8,0,1.4-0.6,1.4-1.4
	c0-0.8-0.6-1.4-1.4-1.4S10.7,9.4,10.7,10.2z"/>
</svg>
