<?xml version="1.0" encoding="utf-8"?>
<!-- Generator: Adobe Illustrator 25.0.1, SVG Export Plug-In . SVG Version: 6.00 Build 0)  -->
<!DOCTYPE svg PUBLIC "-//W3C//DTD SVG 1.1//EN" "http://www.w3.org/Graphics/SVG/1.1/DTD/svg11.dtd" [
	<!ENTITY ns_extend "http://ns.adobe.com/Extensibility/1.0/">
	<!ENTITY ns_ai "http://ns.adobe.com/AdobeIllustrator/10.0/">
	<!ENTITY ns_graphs "http://ns.adobe.com/Graphs/1.0/">
	<!ENTITY ns_vars "http://ns.adobe.com/Variables/1.0/">
	<!ENTITY ns_imrep "http://ns.adobe.com/ImageReplacement/1.0/">
	<!ENTITY ns_sfw "http://ns.adobe.com/SaveForWeb/1.0/">
	<!ENTITY ns_custom "http://ns.adobe.com/GenericCustomNamespace/1.0/">
	<!ENTITY ns_adobe_xpath "http://ns.adobe.com/XPath/1.0/">
]>
<svg version="1.1" id="图层_1" xmlns:x="&ns_extend;" xmlns:i="&ns_ai;" xmlns:graph="&ns_graphs;"
	 xmlns="http://www.w3.org/2000/svg" xmlns:xlink="http://www.w3.org/1999/xlink" x="0px" y="0px" viewBox="0 0 28 28"
	 style="enable-background:new 0 0 28 28;" xml:space="preserve">
<style type="text/css">
	.st0{fill:#37352F;}
</style>
<metadata>
	<sfw  xmlns="&ns_sfw;">
		<slices></slices>
		<sliceSourceBounds  bottomLeftOrigin="true" height="14.8" width="16" x="6" y="6.6"></sliceSourceBounds>
	</sfw>
</metadata>
<g>
	<path class="st0" d="M11.2,6.6c-1.3,0-2.4,0.8-3,1.9H6.9C6.4,8.5,6,8.9,6,9.4c0,0.5,0.4,0.9,0.9,0.9h1c0.2,1.6,1.6,2.8,3.3,2.8
		c1.8,0,3.3-1.5,3.3-3.3S13,6.6,11.2,6.6z M11.2,11.3c-0.8,0-1.4-0.6-1.4-1.4c0-0.8,0.6-1.4,1.4-1.4c0.8,0,1.4,0.6,1.4,1.4
		C12.6,10.7,12,11.3,11.2,11.3z"/>
	<path class="st0" d="M11.6,17.6H6.9c-0.5,0-0.9,0.4-0.9,0.9c0,0.5,0.4,0.9,0.9,0.9h4.7c0.5,0,0.9-0.4,0.9-0.9
		C12.6,18.1,12.2,17.6,11.6,17.6z"/>
	<path class="st0" d="M21.1,17.6h-1c-0.2-1.6-1.6-2.8-3.3-2.8c-1.8,0-3.3,1.5-3.3,3.3s1.5,3.3,3.3,3.3c1.3,0,2.4-0.8,3-1.9h1.3
		c0.5,0,0.9-0.4,0.9-0.9C22,18.1,21.6,17.6,21.1,17.6z M16.8,19.5c-0.8,0-1.4-0.6-1.4-1.4c0-0.8,0.6-1.4,1.4-1.4
		c0.8,0,1.4,0.6,1.4,1.4C18.2,18.9,17.6,19.5,16.8,19.5z"/>
	<path class="st0" d="M16.4,10.4h4.7c0.5,0,0.9-0.4,0.9-0.9c0-0.5-0.4-0.9-0.9-0.9h-4.7c-0.5,0-0.9,0.4-0.9,0.9
		C15.4,9.9,15.8,10.4,16.4,10.4z"/>
</g>
</svg>
