<?xml version="1.0" encoding="utf-8"?>
<!-- Generator: Adobe Illustrator 25.0.1, SVG Export Plug-In . SVG Version: 6.00 Build 0)  -->
<!DOCTYPE svg PUBLIC "-//W3C//DTD SVG 1.1//EN" "http://www.w3.org/Graphics/SVG/1.1/DTD/svg11.dtd" [
	<!ENTITY ns_extend "http://ns.adobe.com/Extensibility/1.0/">
	<!ENTITY ns_ai "http://ns.adobe.com/AdobeIllustrator/10.0/">
	<!ENTITY ns_graphs "http://ns.adobe.com/Graphs/1.0/">
	<!ENTITY ns_vars "http://ns.adobe.com/Variables/1.0/">
	<!ENTITY ns_imrep "http://ns.adobe.com/ImageReplacement/1.0/">
	<!ENTITY ns_sfw "http://ns.adobe.com/SaveForWeb/1.0/">
	<!ENTITY ns_custom "http://ns.adobe.com/GenericCustomNamespace/1.0/">
	<!ENTITY ns_adobe_xpath "http://ns.adobe.com/XPath/1.0/">
]>
<svg version="1.1" id="图层_1" xmlns:x="&ns_extend;" xmlns:i="&ns_ai;" xmlns:graph="&ns_graphs;"
	 xmlns="http://www.w3.org/2000/svg" xmlns:xlink="http://www.w3.org/1999/xlink" x="0px" y="0px" viewBox="0 0 28 28"
	 style="enable-background:new 0 0 28 28;" xml:space="preserve">
<style type="text/css">
	.st0{fill:#37352F;}
</style>
<metadata>
	<sfw  xmlns="&ns_sfw;">
		<slices></slices>
		<sliceSourceBounds  bottomLeftOrigin="true" height="16" width="16" x="6" y="6"></sliceSourceBounds>
	</sfw>
</metadata>
<desc>Created with Sketch.</desc>
<desc>Created with Sketch.</desc>
<desc>Created with Sketch.</desc>
<desc>Created with Sketch.</desc>
<desc>Created with Sketch.</desc>
<desc>Created with Sketch.</desc>
<path class="st0" d="M14,6c-4.4,0-8,3.6-8,8c0,4.3,3.7,8,8,8c4.4,0,8-3.7,8-8C22,9.6,18.3,6,14,6z M14,20.2c-0.3,0-0.6,0-1-0.1
	c3-0.1,5.4-2.5,5.5-5.5c0.1-1.3-0.4-2.5-1.2-3.4c-0.9-0.9-2-1.5-3.3-1.6c-1.1-0.1-2.1,0.3-2.9,1c-0.8,0.7-1.2,1.7-1.3,2.7
	c-0.1,1.8,1.3,3.4,3.1,3.5c1.5,0.1,2.8-1.1,2.9-2.6c0-0.4-0.3-0.7-0.7-0.7c-0.4,0-0.7,0.3-0.7,0.7c0,0.8-0.7,1.4-1.5,1.3
	c-1.1-0.1-1.9-1-1.8-2c0-0.7,0.3-1.3,0.8-1.8s1.2-0.7,1.9-0.7c0.9,0,1.7,0.4,2.4,1.1s0.9,1.5,0.9,2.5c-0.1,2.4-2.2,4.3-4.6,4.2
	c-1.9-0.1-3.5-1.1-4.4-2.5c-0.3-0.7-0.4-1.5-0.4-2.3c0-3.4,2.8-6.2,6.3-6.2c3.4,0,6.2,2.8,6.2,6.2S17.4,20.2,14,20.2z"/>
</svg>
