<?xml version="1.0" encoding="utf-8"?>
<!-- Generator: Adobe Illustrator 25.0.1, SVG Export Plug-In . SVG Version: 6.00 Build 0)  -->
<!DOCTYPE svg PUBLIC "-//W3C//DTD SVG 1.1//EN" "http://www.w3.org/Graphics/SVG/1.1/DTD/svg11.dtd" [
	<!ENTITY ns_extend "http://ns.adobe.com/Extensibility/1.0/">
	<!ENTITY ns_ai "http://ns.adobe.com/AdobeIllustrator/10.0/">
	<!ENTITY ns_graphs "http://ns.adobe.com/Graphs/1.0/">
	<!ENTITY ns_vars "http://ns.adobe.com/Variables/1.0/">
	<!ENTITY ns_imrep "http://ns.adobe.com/ImageReplacement/1.0/">
	<!ENTITY ns_sfw "http://ns.adobe.com/SaveForWeb/1.0/">
	<!ENTITY ns_custom "http://ns.adobe.com/GenericCustomNamespace/1.0/">
	<!ENTITY ns_adobe_xpath "http://ns.adobe.com/XPath/1.0/">
]>
<svg version="1.1" id="图层_1" xmlns:x="&ns_extend;" xmlns:i="&ns_ai;" xmlns:graph="&ns_graphs;"
	 xmlns="http://www.w3.org/2000/svg" xmlns:xlink="http://www.w3.org/1999/xlink" x="0px" y="0px" viewBox="0 0 28 28"
	 style="enable-background:new 0 0 28 28;" xml:space="preserve">
<style type="text/css">
	.st0{fill:#EB8383;}
</style>
<metadata>
	<sfw  xmlns="&ns_sfw;">
		<slices></slices>
		<sliceSourceBounds  bottomLeftOrigin="true" height="28" width="28" x="0" y="0"></sliceSourceBounds>
	</sfw>
</metadata>
<path class="st0" d="M24.5,0h-4c-0.2,0-0.3,0-0.5,0h-7.9c-0.2,0-0.3,0-0.5,0H3.5C1.5,0,0,1.6,0,3.5v21C0,26.5,1.5,28,3.5,28h21
	c1.9,0,3.5-1.5,3.5-3.5v-21C28,1.6,26.4,0,24.5,0z M12.6,2.8h5l-2.3,3.5h-5L12.6,2.8z M2.8,3.5c0-0.4,0.3-0.7,0.7-0.7h5.7L6.9,6.3
	H2.8V3.5z M25.2,24.5c0,0.4-0.3,0.7-0.7,0.7h-21c-0.4,0-0.7-0.3-0.7-0.7V9.1h22.4V24.5z M25.2,6.3h-6.5L21,2.8h3.5
	c0.4,0,0.7,0.3,0.7,0.7V6.3z"/>
</svg>
